<?xml version="1.0" encoding="UTF-8"?><svg id="Layer_1" xmlns="http://www.w3.org/2000/svg" viewBox="0 0 1261.05 943"><g><g><g><path d="M524.44,47.1c-.06,0-.13,.01-.2,.02-.21,.03-.4,.06-.58,.11,.31,.18,.57,.38,.79,.58,0-.22,0-.49,0-.71Z" style="fill:#fff;"/><path d="M520.46,49.42c-.51,.53-1.04,1.08-1.7,1.55-.75,.54-1.55,.91-2.46,1.12-.19,.04-.36,.08-.53,.11,.33,.18,.68,.34,1.05,.45,1.99-.56,3.12-1.73,4.13-2.76,.07-.07,.14-.14,.2-.21-.18-.12-.41-.22-.66-.29,0,0-.02,.02-.02,.02Z" style="fill:#fff;"/><path d="M524.44,46.61c0-.06,0-.11-.01-.16-.02-.17-.04-.34-.08-.51-.08,0-.15,.02-.23,.03-.85,.11-1.62,.37-2.33,.8,.47,0,.86,.07,1.2,.17,.39-.14,.79-.24,1.22-.3,.08-.01,.16-.02,.24-.03Z" style="fill:#fff;"/><path d="M519.9,49.28c-.32-.04-.64-.05-.93-.03-.77,.74-1.62,1.38-2.94,1.69-.64,.15-1.18,.21-1.65,.19,.23,.24,.48,.46,.74,.65,.33-.03,.68-.09,1.06-.18,1.76-.41,2.77-1.36,3.71-2.32Z" style="fill:#fff;"/></g><g><path d="M515.06,47.37c-.21-1.92,1.18-3.65,3.1-3.85,1.69-.18,3.19,.72,3.67,2.29,0,0,0,0,0,0,.59-.34,1.25-.64,1.98-.8,.06-.01,.19-.04,.25-.05-.79-2.65-3.3-4.09-6.15-3.79-3.21,.35-5.53,3.23-5.19,6.44,.11,1.04,.49,1.98,1.05,2.77,0,0,0,0,0,0,0,0,0,0,0,0,0,0,.01,.02,.03,.02s.03,0,.03,.01c.48,.14,1.16,.1,2.01-.1,.34-.08,.65-.18,.93-.31-.93-.54-1.6-1.5-1.72-2.65Z" style="fill:#fff;"/><path d="M520.99,47.25l-1.64,1.63s1.62-.24,2.7,.72c-.22,.21-.45,.45-.69,.7-.52,.54-1.12,1.15-1.86,1.69-.42,.31-.86,.57-1.33,.78h6.29v-4.4s0,0,0,0c-.95-.98-2.15-1.34-3.48-1.11Z" style="fill:#fff;"/></g></g><g><polygon points="516.93 47.42 517.21 47.29 517.21 46.88 516.93 47.02 516.93 47.42" style="fill:#fff;"/><polygon points="518.96 46.37 519.23 46.47 519.23 46.06 518.96 45.96 518.96 46.37" style="fill:#fff;"/><polygon points="516.93 48.16 517.21 48.06 517.21 47.65 516.93 47.75 516.93 48.16" style="fill:#fff;"/><polygon points="518.96 47.06 519.24 47.16 519.24 46.79 518.96 46.69 518.96 47.06" style="fill:#fff;"/><polygon points="518.96 47.8 519.23 47.9 519.23 47.49 518.96 47.39 518.96 47.8" style="fill:#fff;"/><path d="M518.59,44.04c-1.61,0-2.79,1.32-2.91,2.91,0,.13-.03,.47,0,.6l.08-.04,.78-.36v1.86c.05,.04,.1,.09,.14,.13l.03-2.47,.76-.47,.05,3.41c.05-.04,.11-.07,.16-.11l-.05-3.65,.83-.51,.02,3.46c.06-.06,.12-.11,.18-.16l-.03-3.28,.87,.32,.03,2.1c.05-.05,.11-.11,.16-.16v-1.72s.79,.32,.79,.32v.6c.2-.16,.39-.28,.6-.43,.1-.07,.24-.16,.34-.23-.33-1.25-1.46-2.14-2.81-2.14Z" style="fill:#fff;"/></g></g><text transform="translate(527.04 49.79)" style="fill:#fff; font-family:AvenirLTStd-Black, &apos;Avenir LT Std&apos;; font-size:7px;"><tspan x="0" y="0">Gaston County</tspan></text></svg>