<svg id="Layer_1" data-name="Layer 1" xmlns="http://www.w3.org/2000/svg" viewBox="0 0 234.31 71.36"><text transform="translate(35.74 40.12)" style="font-size:19.458860397338867px;fill:#fff;font-family:Corbel-Bold, Corbel;font-weight:700">ONE</text><text transform="translate(41.69 66.86)" style="font-size:14.66077995300293px;fill:#fff;font-family:CenturyGothic-Bold, Century Gothic;font-weight:700;letter-spacing:0.011989897574582666em">2040</text><text transform="translate(0 54.77)" style="font-size:18.392620086669922px;fill:#fff;font-family:Gotham-Medium, Gotham;font-weight:500;letter-spacing:-0.056997852334795186em">G</text><text transform="translate(13.08 54.77)" style="font-size:18.392620086669922px;fill:#fff;font-family:Gotham-Medium, Gotham;font-weight:500;letter-spacing:-0.05702440000705172em">A</text><text transform="translate(26.35 54.77)" style="font-size:18.392620086669922px;fill:#fff;font-family:Gotham-Medium, Gotham;font-weight:500;letter-spacing:-0.05702440000705172em">S</text><text transform="translate(37.36 54.77)" style="font-size:19.458860397338867px;fill:#fff;font-family:Corbel-Bold, Corbel;font-weight:700">T</text><text transform="translate(47.07 54.77)" style="font-size:18.392620086669922px;fill:#fff;font-family:Gotham-Medium, Gotham;font-weight:500;letter-spacing:-0.05702440000705172em">O</text><text transform="translate(61.19 54.77)" style="font-size:18.392620086669922px;fill:#fff;font-family:Gotham-Medium, Gotham;font-weight:500;letter-spacing:-0.05702440000705172em">N</text><path d="M283.43,193.58a12.7,12.7,0,0,0-11.14,6.62l-.2.38h1.83a11.07,11.07,0,1,1,13.62,16v1.71l.4-.15a12.68,12.68,0,0,0-4.51-24.52Z" transform="translate(-210.11 -176.89)" style="fill:#f36f27"/><path d="M283.43,189.43a16.92,16.92,0,0,0-15.75,10.87c0,.09-.06.19-.1.28h1.71a15.23,15.23,0,1,1,18.25,20.34v1.66l.27-.07a16.83,16.83,0,0,0-4.38-33.08Z" transform="translate(-210.11 -176.89)" style="fill:#4aafe3"/><path d="M283.43,184.94a21.4,21.4,0,0,0-20.49,15.42,1.8,1.8,0,0,0-.06.22h1.66a19.72,19.72,0,1,1,23,25v1.63l.18,0a21.32,21.32,0,0,0-4.29-42.2Z" transform="translate(-210.11 -176.89)" style="fill:#d92128"/><path d="M283.43,181.24a24.93,24.93,0,0,0-24.32,19.15,1.62,1.62,0,0,0,0,.19h1.64a23.41,23.41,0,1,1,26.83,28.73v1.62h.08a25,25,0,0,0-4.19-49.68Z" transform="translate(-210.11 -176.89)" style="fill:#40af49"/><path d="M283.43,176.89a29.43,29.43,0,0,0-28.79,23.53l0,.16h1.63a27.77,27.77,0,1,1,31.3,33.14v1.62a29.37,29.37,0,0,0-4.11-58.45Z" transform="translate(-210.11 -176.89)" style="fill:#f99d24"/><text transform="translate(110.4 31.58)" style="font-size:14.402917861938477px;fill:#fff;font-family:MyriadPro-Regular, Myriad Pro"><tspan style="letter-spacing:-0.010984102424000603em">C</tspan><tspan x="8.2" y="0">ommuni</tspan><tspan x="59.43" y="0" style="letter-spacing:0.00898391093321037em">t</tspan><tspan x="64.32" y="0">y Explo</tspan><tspan x="107.42" y="0" style="letter-spacing:-0.009967055903259806em">r</tspan><tspan x="111.98" y="0">er</tspan></text></svg>